<svg id="Capa_1" enable-background="new 0 0 507.636 507.636" height="512" viewBox="0 0 507.636 507.636" width="512" xmlns="http://www.w3.org/2000/svg"><g><path d="m483.628 355.727c-46.018-.71-107.683-2.73-134.329-5.486-24.385-2.521-45.374-6.57-64.165-12.38-3.959-1.223-8.157.993-9.381 4.95-1.223 3.958.993 8.157 4.95 9.381 19.743 6.104 41.676 10.346 67.052 12.97 31.194 3.226 102.366 5.05 135.641 5.563 5.094.079 9.239 4.29 9.239 9.387v78.163c0 5.177-4.208 9.389-9.38 9.389l-454.761.007c-1.354 0-2.566-.006-3.694-.08-1.794-.119-3.049-.391-3.951-.856-3.11-1.604-4.657-6.938-4.731-16.308l-1.005-127.355c-.4-50.796-.814-103.322 17.13-151.351 6.521-17.456 15.663-34.122 27.17-49.534 2.478-3.319 1.796-8.019-1.523-10.497s-8.019-1.796-10.497 1.523c-12.358 16.552-22.183 34.471-29.202 53.259-18.913 50.625-18.468 106.989-18.076 156.719l1.004 127.355c.049 6.286.181 22.985 12.855 29.521 2.792 1.44 5.918 2.232 9.838 2.492 1.583.104 3.118.113 4.682.113l454.761-.007c13.443 0 24.38-10.941 24.38-24.389v-78.163c.001-13.242-10.769-24.181-24.007-24.386z"/><path d="m78.302 100.214c7.843-7.957 16.376-15.356 25.36-21.99 14.273-10.541 29.224-18.973 44.572-25.214 11.04-2.428 22.212-3.493 33.209-3.16 21.635.658 42.709 6.44 60.945 16.723 25.689 14.485 45.915 38.171 55.844 65.282-1.111.2-2.204.45-3.282.737-26.057-18.534-64.802-19.722-91.927-2.319-16.929 10.862-29.76 27.54-37.106 48.229-6.921 19.492-8.259 41.201-3.767 61.127 8.329 36.948 34.857 70.778 72.784 92.817 5.239 3.044 10.773 5.922 16.448 8.554 1.021.474 2.094.698 3.15.698 2.83 0 5.54-1.61 6.809-4.347 1.743-3.757.109-8.216-3.648-9.959-5.258-2.439-10.38-5.102-15.222-7.916-34.331-19.949-58.273-50.255-65.687-83.146-8.147-36.144 6.295-75.438 34.341-93.433 19.901-12.77 47.437-13.302 68.239-2.333-9.371 7.643-15.371 19.269-15.371 32.276 0 22.963 18.682 41.645 41.645 41.645 4.639 0 9.25-.78 13.608-2.283 7.842 9.546 19.667 15.263 32.208 15.263 16.069 0 30.494-9.185 37.407-23.337 21.445-1.669 38.383-19.652 38.383-41.518 0-22.963-18.682-41.645-41.645-41.645-5.091 0-10.088.93-14.783 2.716-14.635-31.845-39.374-58.701-70.378-76.182-24.489-13.808-52.741-21.572-81.703-22.453-42.929-1.303-85.798 12.911-123.983 41.111-9.612 7.099-18.741 15.014-27.132 23.527-2.908 2.95-2.874 7.698.076 10.606s7.698 2.874 10.606-.076zm214.768-39.649c30.384 17.131 54.16 44.115 66.969 75.994.149.399.339.789.562 1.168.014.024.028.049.042.073.043.072.08.146.126.218.358.552.781 1.034 1.245 1.458.018.016.036.033.054.05.538.482 1.135.875 1.771 1.178.019.009.038.019.058.028.633.294 1.301.498 1.986.607.047.008.094.016.141.023.335.047.672.074 1.011.075.013 0 .025.003.037.003.071 0 .143-.008.214-.01.149-.004.297-.008.446-.021.079-.007.158-.021.237-.03.159-.019.318-.038.476-.068.063-.012.126-.03.189-.043.173-.037.346-.075.518-.125.052-.015.104-.036.156-.052.178-.056.356-.114.532-.184.006-.002.013-.004.019-.007.075-.03.144-.068.218-.1.145-.064.29-.125.432-.199.215-.11.421-.231.621-.359.004-.003.008-.004.012-.007s.009-.005.014-.008c.017-.011.036-.021.054-.032 4.296-2.765 9.27-4.229 14.389-4.229 14.692 0 26.645 11.953 26.645 26.645s-11.953 26.645-26.645 26.645c-.469 0-.936-.013-1.4-.037-3.363-.169-6.421 1.912-7.492 5.099-3.651 10.855-13.799 18.148-25.252 18.148-9.479 0-18.323-5.111-23.08-13.339-2.033-3.516-6.496-4.775-10.066-2.84-3.862 2.093-8.243 3.199-12.67 3.199-14.692 0-26.645-11.953-26.645-26.645s11.953-26.645 26.645-26.645c.611 0 1.267.028 2.064.089 2.406.183 4.761-.804 6.314-2.656 1.554-1.851 2.121-4.337 1.522-6.679-.604-2.364-1.343-4.836-2.195-7.347-10.739-31.63-33.916-59.366-63.587-76.096-10.337-5.829-21.484-10.354-33.101-13.498.541.011 1.083.015 1.624.031 26.544.807 52.407 7.904 74.79 20.525z"/></g></svg>